<svg width="718" height="16" viewBox="0 0 718 16" fill="none" xmlns="http://www.w3.org/2000/svg">
<path d="M-1.01776 7.9703C10.9492 -1.32343 22.9162 -1.32343 34.8831 7.9703C46.8501 17.264 58.8171 17.264 70.784 7.9703C82.751 -1.32343 94.7179 -1.32343 106.685 7.9703C118.652 17.264 130.619 17.264 142.586 7.9703C154.553 -1.32343 166.52 -1.32343 178.487 7.9703C190.454 17.264 202.421 17.264 214.388 7.9703C226.355 -1.32343 238.321 -1.32343 250.288 7.9703C262.255 17.264 274.222 17.264 286.189 7.9703C298.156 -1.32343 310.123 -1.32343 322.09 7.9703C334.057 17.264 346.024 17.264 357.991 7.9703C369.958 -1.32343 381.925 -1.32343 393.892 7.9703C405.859 17.264 417.826 17.264 429.793 7.9703C441.76 -1.32343 453.727 -1.32343 465.694 7.9703C477.661 17.264 489.628 17.264 501.595 7.9703C513.562 -1.32343 525.529 -1.32343 537.496 7.9703C549.463 17.264 561.429 17.264 573.396 7.9703C585.363 -1.32343 597.33 -1.32343 609.297 7.9703C621.264 17.264 633.231 17.264 645.198 7.9703C657.165 -1.32343 669.132 -1.32343 681.099 7.9703C693.066 17.264 705.033 17.264 717 7.9703" stroke="#35426B" stroke-width="2" stroke-linecap="round"/>
</svg>
