<svg width="325" height="238" viewBox="0 0 325 238" fill="none" xmlns="http://www.w3.org/2000/svg">
<path d="M147.309 108.235H148.809V106.735H147.309V108.235ZM95.5605 108.235H94.0605V109.735H95.5605V108.235ZM147.309 64.7669L147.365 66.2659L148.809 66.2114V64.7669H147.309ZM147.309 0.599419H148.809V-0.900581H147.309V0.599419ZM0.344278 237.95H-1.15572V239.45H0.344278V237.95ZM147.309 237.95V239.45H148.809V237.95H147.309ZM324.632 108.235H326.132V106.735H324.632V108.235ZM272.884 108.235H271.384V109.735H272.884V108.235ZM324.632 64.7669L324.688 66.2659L326.132 66.2114V64.7669H324.632ZM324.632 0.599419H326.132V-0.900581H324.632V0.599419ZM177.667 237.95H176.167V239.45H177.667V237.95ZM324.632 237.95V239.45H326.132V237.95H324.632ZM147.309 106.735H95.5605V109.735H147.309V106.735ZM97.0605 108.235V104.095H94.0605V108.235H97.0605ZM97.0605 104.095C97.0605 92.7186 100.722 83.7048 108.661 77.3204C116.669 70.8811 129.232 66.9501 147.365 66.2659L147.252 63.268C128.816 63.9637 115.505 67.9674 106.781 74.9825C97.9891 82.0526 94.0605 92.0131 94.0605 104.095H97.0605ZM148.809 64.7669V0.599419H145.809V64.7669H148.809ZM147.309 -0.900581C104.331 -0.900581 67.2378 8.80039 40.849 28.3735C14.4015 47.9902 -1.15572 77.4264 -1.15572 116.515H1.84428C1.84428 78.3264 16.9909 49.8048 42.6363 30.7831C68.3405 11.7177 104.729 2.09942 147.309 2.09942V-0.900581ZM-1.15572 116.515V237.95H1.84428V116.515H-1.15572ZM0.344278 239.45H147.309V236.45H0.344278V239.45ZM148.809 237.95V108.235H145.809V237.95H148.809ZM324.632 106.735H272.884V109.735H324.632V106.735ZM274.384 108.235V104.095H271.384V108.235H274.384ZM274.384 104.095C274.384 92.7186 278.045 83.7048 285.984 77.3204C293.992 70.8811 306.555 66.9501 324.688 66.2659L324.575 63.268C306.139 63.9637 292.828 67.9674 284.104 74.9825C275.312 82.0526 271.384 92.0131 271.384 104.095H274.384ZM326.132 64.7669V0.599419H323.132V64.7669H326.132ZM324.632 -0.900581C281.654 -0.900581 244.561 8.80039 218.172 28.3735C191.725 47.9902 176.167 77.4264 176.167 116.515H179.167C179.167 78.3264 194.314 49.8048 219.959 30.7831C245.664 11.7177 282.052 2.09942 324.632 2.09942V-0.900581ZM176.167 116.515V237.95H179.167V116.515H176.167ZM177.667 239.45H324.632V236.45H177.667V239.45ZM326.132 237.95V108.235H323.132V237.95H326.132Z" fill="white"/>
</svg>
