<svg width="56" height="21" viewBox="0 0 56 21" fill="none" xmlns="http://www.w3.org/2000/svg">
<path d="M1 2.5C4.6 4.5 8.2 4.5 11.8 2.5C15.4 0.5 19 0.5 22.6 2.5C26.2 4.5 29.8 4.5 33.4 2.5C37 0.5 40.6 0.5 44.2 2.5C47.8 4.5 51.4 4.5 55 2.5" stroke="#35426B" stroke-width="2" stroke-linecap="round"/>
<path d="M1 10.5C4.6 12.5 8.2 12.5 11.8 10.5C15.4 8.5 19 8.5 22.6 10.5C26.2 12.5 29.8 12.5 33.4 10.5C37 8.5 40.6 8.5 44.2 10.5C47.8 12.5 51.4 12.5 55 10.5" stroke="#35426B" stroke-width="2" stroke-linecap="round"/>
<path d="M1 18.5C4.6 20.5 8.2 20.5 11.8 18.5C15.4 16.5 19 16.5 22.6 18.5C26.2 20.5 29.8 20.5 33.4 18.5C37 16.5 40.6 16.5 44.2 18.5C47.8 20.5 51.4 20.5 55 18.5" stroke="#35426B" stroke-width="2" stroke-linecap="round"/>
</svg>
