<svg width="963" height="706" viewBox="0 0 963 706" fill="none" xmlns="http://www.w3.org/2000/svg">
<path d="M1.98218 7.9703C17.9825 -1.32343 33.9828 -1.32343 49.9831 7.9703C65.9834 17.264 81.9837 17.264 97.984 7.9703C113.984 -1.32343 129.985 -1.32343 145.985 7.9703C161.985 17.264 177.985 17.264 193.986 7.9703C209.986 -1.32343 225.986 -1.32343 241.987 7.9703C257.987 17.264 273.987 17.264 289.988 7.9703C305.988 -1.32343 321.988 -1.32343 337.988 7.9703C353.989 17.264 369.989 17.264 385.989 7.9703C401.99 -1.32343 417.99 -1.32343 433.99 7.9703C449.99 17.264 465.991 17.264 481.991 7.9703C497.991 -1.32343 513.992 -1.32343 529.992 7.9703C545.992 17.264 561.993 17.264 577.993 7.9703C593.993 -1.32343 609.993 -1.32343 625.994 7.9703C641.994 17.264 657.994 17.264 673.995 7.9703C689.995 -1.32343 705.995 -1.32343 721.996 7.9703C737.996 17.264 753.996 17.264 769.996 7.9703C785.997 -1.32343 801.997 -1.32343 817.997 7.9703C833.998 17.264 849.998 17.264 865.998 7.9703C881.999 -1.32343 897.999 -1.32343 913.999 7.9703C929.999 17.264 946 17.264 962 7.9703" stroke="#35426B" stroke-width="2" stroke-linecap="round"/>
<path d="M1.98218 28.8812C17.9825 19.5875 33.9828 19.5875 49.9831 28.8812C65.9834 38.1749 81.9837 38.1749 97.984 28.8812C113.984 19.5875 129.985 19.5875 145.985 28.8812C161.985 38.1749 177.985 38.1749 193.986 28.8812C209.986 19.5875 225.986 19.5875 241.987 28.8812C257.987 38.1749 273.987 38.1749 289.988 28.8812C305.988 19.5875 321.988 19.5875 337.988 28.8812C353.989 38.1749 369.989 38.1749 385.989 28.8812C401.99 19.5875 417.99 19.5875 433.99 28.8812C449.99 38.1749 465.991 38.1749 481.991 28.8812C497.991 19.5875 513.992 19.5875 529.992 28.8812C545.992 38.1749 561.993 38.1749 577.993 28.8812C593.993 19.5875 609.993 19.5875 625.994 28.8812C641.994 38.1749 657.994 38.1749 673.995 28.8812C689.995 19.5875 705.995 19.5875 721.996 28.8812C737.996 38.1749 753.996 38.1749 769.996 28.8812C785.997 19.5875 801.997 19.5875 817.997 28.8812C833.998 38.1749 849.998 38.1749 865.998 28.8812C881.999 19.5875 897.999 19.5875 913.999 28.8812C929.999 38.1749 946 38.1749 962 28.8812" stroke="#35426B" stroke-width="2" stroke-linecap="round"/>
<path d="M1.98218 49.7921C17.9825 40.4983 33.9828 40.4983 49.9831 49.7921C65.9834 59.0858 81.9837 59.0858 97.984 49.7921C113.984 40.4983 129.985 40.4983 145.985 49.7921C161.985 59.0858 177.985 59.0858 193.986 49.7921C209.986 40.4983 225.986 40.4983 241.987 49.7921C257.987 59.0858 273.987 59.0858 289.988 49.7921C305.988 40.4983 321.988 40.4983 337.988 49.7921C353.989 59.0858 369.989 59.0858 385.989 49.7921C401.99 40.4983 417.99 40.4983 433.99 49.7921C449.99 59.0858 465.991 59.0858 481.991 49.7921C497.991 40.4983 513.992 40.4983 529.992 49.7921C545.992 59.0858 561.993 59.0858 577.993 49.7921C593.993 40.4983 609.993 40.4983 625.994 49.7921C641.994 59.0858 657.994 59.0858 673.995 49.7921C689.995 40.4983 705.995 40.4983 721.996 49.7921C737.996 59.0858 753.996 59.0858 769.996 49.7921C785.997 40.4983 801.997 40.4983 817.997 49.7921C833.998 59.0858 849.998 59.0858 865.998 49.7921C881.999 40.4983 897.999 40.4983 913.999 49.7921C929.999 59.0858 946 59.0858 962 49.7921" stroke="#35426B" stroke-width="2" stroke-linecap="round"/>
<path d="M1.98218 70.703C17.9825 61.4092 33.9828 61.4092 49.9831 70.703C65.9834 79.9967 81.9837 79.9967 97.984 70.703C113.984 61.4092 129.985 61.4092 145.985 70.703C161.985 79.9967 177.985 79.9967 193.986 70.703C209.986 61.4092 225.986 61.4092 241.987 70.703C257.987 79.9967 273.987 79.9967 289.988 70.703C305.988 61.4092 321.988 61.4092 337.988 70.703C353.989 79.9967 369.989 79.9967 385.989 70.703C401.99 61.4092 417.99 61.4092 433.99 70.703C449.99 79.9967 465.991 79.9967 481.991 70.703C497.991 61.4092 513.992 61.4092 529.992 70.703C545.992 79.9967 561.993 79.9967 577.993 70.703C593.993 61.4092 609.993 61.4092 625.994 70.703C641.994 79.9967 657.994 79.9967 673.995 70.703C689.995 61.4092 705.995 61.4092 721.996 70.703C737.996 79.9967 753.996 79.9967 769.996 70.703C785.997 61.4092 801.997 61.4092 817.997 70.703C833.998 79.9967 849.998 79.9967 865.998 70.703C881.999 61.4092 897.999 61.4092 913.999 70.703C929.999 79.9967 946 79.9967 962 70.703" stroke="#35426B" stroke-width="2" stroke-linecap="round"/>
<path d="M1.98218 91.6139C17.9825 82.3201 33.9828 82.3201 49.9831 91.6139C65.9834 100.908 81.9837 100.908 97.984 91.6139C113.984 82.3201 129.985 82.3201 145.985 91.6139C161.985 100.908 177.985 100.908 193.986 91.6139C209.986 82.3201 225.986 82.3201 241.987 91.6139C257.987 100.908 273.987 100.908 289.988 91.6139C305.988 82.3201 321.988 82.3201 337.988 91.6139C353.989 100.908 369.989 100.908 385.989 91.6139C401.99 82.3201 417.99 82.3201 433.99 91.6139C449.99 100.908 465.991 100.908 481.991 91.6139C497.991 82.3201 513.992 82.3201 529.992 91.6139C545.992 100.908 561.993 100.908 577.993 91.6139C593.993 82.3201 609.993 82.3201 625.994 91.6139C641.994 100.908 657.994 100.908 673.995 91.6139C689.995 82.3201 705.995 82.3201 721.996 91.6139C737.996 100.908 753.996 100.908 769.996 91.6139C785.997 82.3201 801.997 82.3201 817.997 91.6139C833.998 100.908 849.998 100.908 865.998 91.6139C881.999 82.3201 897.999 82.3201 913.999 91.6139C929.999 100.908 946 100.908 962 91.6139" stroke="#35426B" stroke-width="2" stroke-linecap="round"/>
<path d="M1.98218 112.525C17.9825 103.231 33.9828 103.231 49.9831 112.525C65.9834 121.818 81.9837 121.818 97.984 112.525C113.984 103.231 129.985 103.231 145.985 112.525C161.985 121.818 177.985 121.818 193.986 112.525C209.986 103.231 225.986 103.231 241.987 112.525C257.987 121.818 273.987 121.818 289.988 112.525C305.988 103.231 321.988 103.231 337.988 112.525C353.989 121.818 369.989 121.818 385.989 112.525C401.99 103.231 417.99 103.231 433.99 112.525C449.99 121.818 465.991 121.818 481.991 112.525C497.991 103.231 513.992 103.231 529.992 112.525C545.992 121.818 561.993 121.818 577.993 112.525C593.993 103.231 609.993 103.231 625.994 112.525C641.994 121.818 657.994 121.818 673.995 112.525C689.995 103.231 705.995 103.231 721.996 112.525C737.996 121.818 753.996 121.818 769.996 112.525C785.997 103.231 801.997 103.231 817.997 112.525C833.998 121.818 849.998 121.818 865.998 112.525C881.999 103.231 897.999 103.231 913.999 112.525C929.999 121.818 946 121.818 962 112.525" stroke="#35426B" stroke-width="2" stroke-linecap="round"/>
<path d="M1.98218 133.436C17.9825 124.142 33.9828 124.142 49.9831 133.436C65.9834 142.729 81.9837 142.729 97.984 133.436C113.984 124.142 129.985 124.142 145.985 133.436C161.985 142.729 177.985 142.729 193.986 133.436C209.986 124.142 225.986 124.142 241.987 133.436C257.987 142.729 273.987 142.729 289.988 133.436C305.988 124.142 321.988 124.142 337.988 133.436C353.989 142.729 369.989 142.729 385.989 133.436C401.99 124.142 417.99 124.142 433.99 133.436C449.99 142.729 465.991 142.729 481.991 133.436C497.991 124.142 513.992 124.142 529.992 133.436C545.992 142.729 561.993 142.729 577.993 133.436C593.993 124.142 609.993 124.142 625.994 133.436C641.994 142.729 657.994 142.729 673.995 133.436C689.995 124.142 705.995 124.142 721.996 133.436C737.996 142.729 753.996 142.729 769.996 133.436C785.997 124.142 801.997 124.142 817.997 133.436C833.998 142.729 849.998 142.729 865.998 133.436C881.999 124.142 897.999 124.142 913.999 133.436C929.999 142.729 946 142.729 962 133.436" stroke="#35426B" stroke-width="2" stroke-linecap="round"/>
<path d="M1.98218 154.347C17.9825 145.053 33.9828 145.053 49.9831 154.347C65.9834 163.64 81.9837 163.64 97.984 154.347C113.984 145.053 129.985 145.053 145.985 154.347C161.985 163.64 177.985 163.64 193.986 154.347C209.986 145.053 225.986 145.053 241.987 154.347C257.987 163.64 273.987 163.64 289.988 154.347C305.988 145.053 321.988 145.053 337.988 154.347C353.989 163.64 369.989 163.64 385.989 154.347C401.99 145.053 417.99 145.053 433.99 154.347C449.99 163.64 465.991 163.64 481.991 154.347C497.991 145.053 513.992 145.053 529.992 154.347C545.992 163.64 561.993 163.64 577.993 154.347C593.993 145.053 609.993 145.053 625.994 154.347C641.994 163.64 657.994 163.64 673.995 154.347C689.995 145.053 705.995 145.053 721.996 154.347C737.996 163.64 753.996 163.64 769.996 154.347C785.997 145.053 801.997 145.053 817.997 154.347C833.998 163.64 849.998 163.64 865.998 154.347C881.999 145.053 897.999 145.053 913.999 154.347C929.999 163.64 946 163.64 962 154.347" stroke="#35426B" stroke-width="2" stroke-linecap="round"/>
<path d="M1.98218 175.257C17.9825 165.964 33.9828 165.964 49.9831 175.257C65.9834 184.551 81.9837 184.551 97.984 175.257C113.984 165.964 129.985 165.964 145.985 175.257C161.985 184.551 177.985 184.551 193.986 175.257C209.986 165.964 225.986 165.964 241.987 175.257C257.987 184.551 273.987 184.551 289.988 175.257C305.988 165.964 321.988 165.964 337.988 175.257C353.989 184.551 369.989 184.551 385.989 175.257C401.99 165.964 417.99 165.964 433.99 175.257C449.99 184.551 465.991 184.551 481.991 175.257C497.991 165.964 513.992 165.964 529.992 175.257C545.992 184.551 561.993 184.551 577.993 175.257C593.993 165.964 609.993 165.964 625.994 175.257C641.994 184.551 657.994 184.551 673.995 175.257C689.995 165.964 705.995 165.964 721.996 175.257C737.996 184.551 753.996 184.551 769.996 175.257C785.997 165.964 801.997 165.964 817.997 175.257C833.998 184.551 849.998 184.551 865.998 175.257C881.999 165.964 897.999 165.964 913.999 175.257C929.999 184.551 946 184.551 962 175.257" stroke="#35426B" stroke-width="2" stroke-linecap="round"/>
<path d="M1.98218 196.168C17.9825 186.875 33.9828 186.875 49.9831 196.168C65.9834 205.462 81.9837 205.462 97.984 196.168C113.984 186.875 129.985 186.875 145.985 196.168C161.985 205.462 177.985 205.462 193.986 196.168C209.986 186.875 225.986 186.875 241.987 196.168C257.987 205.462 273.987 205.462 289.988 196.168C305.988 186.875 321.988 186.875 337.988 196.168C353.989 205.462 369.989 205.462 385.989 196.168C401.99 186.875 417.99 186.875 433.99 196.168C449.99 205.462 465.991 205.462 481.991 196.168C497.991 186.875 513.992 186.875 529.992 196.168C545.992 205.462 561.993 205.462 577.993 196.168C593.993 186.875 609.993 186.875 625.994 196.168C641.994 205.462 657.994 205.462 673.995 196.168C689.995 186.875 705.995 186.875 721.996 196.168C737.996 205.462 753.996 205.462 769.996 196.168C785.997 186.875 801.997 186.875 817.997 196.168C833.998 205.462 849.998 205.462 865.998 196.168C881.999 186.875 897.999 186.875 913.999 196.168C929.999 205.462 946 205.462 962 196.168" stroke="#35426B" stroke-width="2" stroke-linecap="round"/>
<path d="M1.98218 217.079C17.9825 207.785 33.9828 207.785 49.9831 217.079C65.9834 226.373 81.9837 226.373 97.984 217.079C113.984 207.785 129.985 207.785 145.985 217.079C161.985 226.373 177.985 226.373 193.986 217.079C209.986 207.785 225.986 207.785 241.987 217.079C257.987 226.373 273.987 226.373 289.988 217.079C305.988 207.785 321.988 207.785 337.988 217.079C353.989 226.373 369.989 226.373 385.989 217.079C401.99 207.785 417.99 207.785 433.99 217.079C449.99 226.373 465.991 226.373 481.991 217.079C497.991 207.785 513.992 207.785 529.992 217.079C545.992 226.373 561.993 226.373 577.993 217.079C593.993 207.785 609.993 207.785 625.994 217.079C641.994 226.373 657.994 226.373 673.995 217.079C689.995 207.785 705.995 207.785 721.996 217.079C737.996 226.373 753.996 226.373 769.996 217.079C785.997 207.785 801.997 207.785 817.997 217.079C833.998 226.373 849.998 226.373 865.998 217.079C881.999 207.785 897.999 207.785 913.999 217.079C929.999 226.373 946 226.373 962 217.079" stroke="#35426B" stroke-width="2" stroke-linecap="round"/>
<path d="M1.98218 237.99C17.9825 228.696 33.9828 228.696 49.9831 237.99C65.9834 247.284 81.9837 247.284 97.984 237.99C113.984 228.696 129.985 228.696 145.985 237.99C161.985 247.284 177.985 247.284 193.986 237.99C209.986 228.696 225.986 228.696 241.987 237.99C257.987 247.284 273.987 247.284 289.988 237.99C305.988 228.696 321.988 228.696 337.988 237.99C353.989 247.284 369.989 247.284 385.989 237.99C401.99 228.696 417.99 228.696 433.99 237.99C449.99 247.284 465.991 247.284 481.991 237.99C497.991 228.696 513.992 228.696 529.992 237.99C545.992 247.284 561.993 247.284 577.993 237.99C593.993 228.696 609.993 228.696 625.994 237.99C641.994 247.284 657.994 247.284 673.995 237.99C689.995 228.696 705.995 228.696 721.996 237.99C737.996 247.284 753.996 247.284 769.996 237.99C785.997 228.696 801.997 228.696 817.997 237.99C833.998 247.284 849.998 247.284 865.998 237.99C881.999 228.696 897.999 228.696 913.999 237.99C929.999 247.284 946 247.284 962 237.99" stroke="#35426B" stroke-width="2" stroke-linecap="round"/>
<path d="M1.98218 258.901C17.9825 249.607 33.9828 249.607 49.9831 258.901C65.9834 268.195 81.9837 268.195 97.984 258.901C113.984 249.607 129.985 249.607 145.985 258.901C161.985 268.195 177.985 268.195 193.986 258.901C209.986 249.607 225.986 249.607 241.987 258.901C257.987 268.195 273.987 268.195 289.988 258.901C305.988 249.607 321.988 249.607 337.988 258.901C353.989 268.195 369.989 268.195 385.989 258.901C401.99 249.607 417.99 249.607 433.99 258.901C449.99 268.195 465.991 268.195 481.991 258.901C497.991 249.607 513.992 249.607 529.992 258.901C545.992 268.195 561.993 268.195 577.993 258.901C593.993 249.607 609.993 249.607 625.994 258.901C641.994 268.195 657.994 268.195 673.995 258.901C689.995 249.607 705.995 249.607 721.996 258.901C737.996 268.195 753.996 268.195 769.996 258.901C785.997 249.607 801.997 249.607 817.997 258.901C833.998 268.195 849.998 268.195 865.998 258.901C881.999 249.607 897.999 249.607 913.999 258.901C929.999 268.195 946 268.195 962 258.901" stroke="#35426B" stroke-width="2" stroke-linecap="round"/>
<path d="M1.98218 279.812C17.9825 270.518 33.9828 270.518 49.9831 279.812C65.9834 289.106 81.9837 289.106 97.984 279.812C113.984 270.518 129.985 270.518 145.985 279.812C161.985 289.106 177.985 289.106 193.986 279.812C209.986 270.518 225.986 270.518 241.987 279.812C257.987 289.106 273.987 289.106 289.988 279.812C305.988 270.518 321.988 270.518 337.988 279.812C353.989 289.106 369.989 289.106 385.989 279.812C401.99 270.518 417.99 270.518 433.99 279.812C449.99 289.106 465.991 289.106 481.991 279.812C497.991 270.518 513.992 270.518 529.992 279.812C545.992 289.106 561.993 289.106 577.993 279.812C593.993 270.518 609.993 270.518 625.994 279.812C641.994 289.106 657.994 289.106 673.995 279.812C689.995 270.518 705.995 270.518 721.996 279.812C737.996 289.106 753.996 289.106 769.996 279.812C785.997 270.518 801.997 270.518 817.997 279.812C833.998 289.106 849.998 289.106 865.998 279.812C881.999 270.518 897.999 270.518 913.999 279.812C929.999 289.106 946 289.106 962 279.812" stroke="#35426B" stroke-width="2" stroke-linecap="round"/>
<path d="M1.98218 300.723C17.9825 291.429 33.9828 291.429 49.9831 300.723C65.9834 310.016 81.9837 310.016 97.984 300.723C113.984 291.429 129.985 291.429 145.985 300.723C161.985 310.016 177.985 310.016 193.986 300.723C209.986 291.429 225.986 291.429 241.987 300.723C257.987 310.016 273.987 310.016 289.988 300.723C305.988 291.429 321.988 291.429 337.988 300.723C353.989 310.016 369.989 310.016 385.989 300.723C401.99 291.429 417.99 291.429 433.99 300.723C449.99 310.016 465.991 310.016 481.991 300.723C497.991 291.429 513.992 291.429 529.992 300.723C545.992 310.016 561.993 310.016 577.993 300.723C593.993 291.429 609.993 291.429 625.994 300.723C641.994 310.016 657.994 310.016 673.995 300.723C689.995 291.429 705.995 291.429 721.996 300.723C737.996 310.016 753.996 310.016 769.996 300.723C785.997 291.429 801.997 291.429 817.997 300.723C833.998 310.016 849.998 310.016 865.998 300.723C881.999 291.429 897.999 291.429 913.999 300.723C929.999 310.016 946 310.016 962 300.723" stroke="#35426B" stroke-width="2" stroke-linecap="round"/>
<path d="M1.98218 321.634C17.9825 312.34 33.9828 312.34 49.9831 321.634C65.9834 330.927 81.9837 330.927 97.984 321.634C113.984 312.34 129.985 312.34 145.985 321.634C161.985 330.927 177.985 330.927 193.986 321.634C209.986 312.34 225.986 312.34 241.987 321.634C257.987 330.927 273.987 330.927 289.988 321.634C305.988 312.34 321.988 312.34 337.988 321.634C353.989 330.927 369.989 330.927 385.989 321.634C401.99 312.34 417.99 312.34 433.99 321.634C449.99 330.927 465.991 330.927 481.991 321.634C497.991 312.34 513.992 312.34 529.992 321.634C545.992 330.927 561.993 330.927 577.993 321.634C593.993 312.34 609.993 312.34 625.994 321.634C641.994 330.927 657.994 330.927 673.995 321.634C689.995 312.34 705.995 312.34 721.996 321.634C737.996 330.927 753.996 330.927 769.996 321.634C785.997 312.34 801.997 312.34 817.997 321.634C833.998 330.927 849.998 330.927 865.998 321.634C881.999 312.34 897.999 312.34 913.999 321.634C929.999 330.927 946 330.927 962 321.634" stroke="#35426B" stroke-width="2" stroke-linecap="round"/>
<path d="M1.98218 342.545C17.9825 333.251 33.9828 333.251 49.9831 342.545C65.9834 351.838 81.9837 351.838 97.984 342.545C113.984 333.251 129.985 333.251 145.985 342.545C161.985 351.838 177.985 351.838 193.986 342.545C209.986 333.251 225.986 333.251 241.987 342.545C257.987 351.838 273.987 351.838 289.988 342.545C305.988 333.251 321.988 333.251 337.988 342.545C353.989 351.838 369.989 351.838 385.989 342.545C401.99 333.251 417.99 333.251 433.99 342.545C449.99 351.838 465.991 351.838 481.991 342.545C497.991 333.251 513.992 333.251 529.992 342.545C545.992 351.838 561.993 351.838 577.993 342.545C593.993 333.251 609.993 333.251 625.994 342.545C641.994 351.838 657.994 351.838 673.995 342.545C689.995 333.251 705.995 333.251 721.996 342.545C737.996 351.838 753.996 351.838 769.996 342.545C785.997 333.251 801.997 333.251 817.997 342.545C833.998 351.838 849.998 351.838 865.998 342.545C881.999 333.251 897.999 333.251 913.999 342.545C929.999 351.838 946 351.838 962 342.545" stroke="#35426B" stroke-width="2" stroke-linecap="round"/>
<path d="M1.98218 363.455C17.9825 354.162 33.9828 354.162 49.9831 363.455C65.9834 372.749 81.9837 372.749 97.984 363.455C113.984 354.162 129.985 354.162 145.985 363.455C161.985 372.749 177.985 372.749 193.986 363.455C209.986 354.162 225.986 354.162 241.987 363.455C257.987 372.749 273.987 372.749 289.988 363.455C305.988 354.162 321.988 354.162 337.988 363.455C353.989 372.749 369.989 372.749 385.989 363.455C401.99 354.162 417.99 354.162 433.99 363.455C449.99 372.749 465.991 372.749 481.991 363.455C497.991 354.162 513.992 354.162 529.992 363.455C545.992 372.749 561.993 372.749 577.993 363.455C593.993 354.162 609.993 354.162 625.994 363.455C641.994 372.749 657.994 372.749 673.995 363.455C689.995 354.162 705.995 354.162 721.996 363.455C737.996 372.749 753.996 372.749 769.996 363.455C785.997 354.162 801.997 354.162 817.997 363.455C833.998 372.749 849.998 372.749 865.998 363.455C881.999 354.162 897.999 354.162 913.999 363.455C929.999 372.749 946 372.749 962 363.455" stroke="#35426B" stroke-width="2" stroke-linecap="round"/>
<path d="M1.98218 384.366C17.9825 375.073 33.9828 375.073 49.9831 384.366C65.9834 393.66 81.9837 393.66 97.984 384.366C113.984 375.073 129.985 375.073 145.985 384.366C161.985 393.66 177.985 393.66 193.986 384.366C209.986 375.073 225.986 375.073 241.987 384.366C257.987 393.66 273.987 393.66 289.988 384.366C305.988 375.073 321.988 375.073 337.988 384.366C353.989 393.66 369.989 393.66 385.989 384.366C401.99 375.073 417.99 375.073 433.99 384.366C449.99 393.66 465.991 393.66 481.991 384.366C497.991 375.073 513.992 375.073 529.992 384.366C545.992 393.66 561.993 393.66 577.993 384.366C593.993 375.073 609.993 375.073 625.994 384.366C641.994 393.66 657.994 393.66 673.995 384.366C689.995 375.073 705.995 375.073 721.996 384.366C737.996 393.66 753.996 393.66 769.996 384.366C785.997 375.073 801.997 375.073 817.997 384.366C833.998 393.66 849.998 393.66 865.998 384.366C881.999 375.073 897.999 375.073 913.999 384.366C929.999 393.66 946 393.66 962 384.366" stroke="#35426B" stroke-width="2" stroke-linecap="round"/>
<path d="M1.98218 405.277C17.9825 395.983 33.9828 395.983 49.9831 405.277C65.9834 414.571 81.9837 414.571 97.984 405.277C113.984 395.983 129.985 395.983 145.985 405.277C161.985 414.571 177.985 414.571 193.986 405.277C209.986 395.983 225.986 395.983 241.987 405.277C257.987 414.571 273.987 414.571 289.988 405.277C305.988 395.983 321.988 395.983 337.988 405.277C353.989 414.571 369.989 414.571 385.989 405.277C401.99 395.983 417.99 395.983 433.99 405.277C449.99 414.571 465.991 414.571 481.991 405.277C497.991 395.983 513.992 395.983 529.992 405.277C545.992 414.571 561.993 414.571 577.993 405.277C593.993 395.983 609.993 395.983 625.994 405.277C641.994 414.571 657.994 414.571 673.995 405.277C689.995 395.983 705.995 395.983 721.996 405.277C737.996 414.571 753.996 414.571 769.996 405.277C785.997 395.983 801.997 395.983 817.997 405.277C833.998 414.571 849.998 414.571 865.998 405.277C881.999 395.983 897.999 395.983 913.999 405.277C929.999 414.571 946 414.571 962 405.277" stroke="#35426B" stroke-width="2" stroke-linecap="round"/>
<path d="M1.98218 426.188C17.9825 416.894 33.9828 416.894 49.9831 426.188C65.9834 435.482 81.9837 435.482 97.984 426.188C113.984 416.894 129.985 416.894 145.985 426.188C161.985 435.482 177.985 435.482 193.986 426.188C209.986 416.894 225.986 416.894 241.987 426.188C257.987 435.482 273.987 435.482 289.988 426.188C305.988 416.894 321.988 416.894 337.988 426.188C353.989 435.482 369.989 435.482 385.989 426.188C401.99 416.894 417.99 416.894 433.99 426.188C449.99 435.482 465.991 435.482 481.991 426.188C497.991 416.894 513.992 416.894 529.992 426.188C545.992 435.482 561.993 435.482 577.993 426.188C593.993 416.894 609.993 416.894 625.994 426.188C641.994 435.482 657.994 435.482 673.995 426.188C689.995 416.894 705.995 416.894 721.996 426.188C737.996 435.482 753.996 435.482 769.996 426.188C785.997 416.894 801.997 416.894 817.997 426.188C833.998 435.482 849.998 435.482 865.998 426.188C881.999 416.894 897.999 416.894 913.999 426.188C929.999 435.482 946 435.482 962 426.188" stroke="#35426B" stroke-width="2" stroke-linecap="round"/>
<path d="M1.98218 447.099C17.9825 437.805 33.9828 437.805 49.9831 447.099C65.9834 456.393 81.9837 456.393 97.984 447.099C113.984 437.805 129.985 437.805 145.985 447.099C161.985 456.393 177.985 456.393 193.986 447.099C209.986 437.805 225.986 437.805 241.987 447.099C257.987 456.393 273.987 456.393 289.988 447.099C305.988 437.805 321.988 437.805 337.988 447.099C353.989 456.393 369.989 456.393 385.989 447.099C401.99 437.805 417.99 437.805 433.99 447.099C449.99 456.393 465.991 456.393 481.991 447.099C497.991 437.805 513.992 437.805 529.992 447.099C545.992 456.393 561.993 456.393 577.993 447.099C593.993 437.805 609.993 437.805 625.994 447.099C641.994 456.393 657.994 456.393 673.995 447.099C689.995 437.805 705.995 437.805 721.996 447.099C737.996 456.393 753.996 456.393 769.996 447.099C785.997 437.805 801.997 437.805 817.997 447.099C833.998 456.393 849.998 456.393 865.998 447.099C881.999 437.805 897.999 437.805 913.999 447.099C929.999 456.393 946 456.393 962 447.099" stroke="#35426B" stroke-width="2" stroke-linecap="round"/>
<path d="M1.98218 468.01C17.9825 458.716 33.9828 458.716 49.9831 468.01C65.9834 477.304 81.9837 477.304 97.984 468.01C113.984 458.716 129.985 458.716 145.985 468.01C161.985 477.304 177.985 477.304 193.986 468.01C209.986 458.716 225.986 458.716 241.987 468.01C257.987 477.304 273.987 477.304 289.988 468.01C305.988 458.716 321.988 458.716 337.988 468.01C353.989 477.304 369.989 477.304 385.989 468.01C401.99 458.716 417.99 458.716 433.99 468.01C449.99 477.304 465.991 477.304 481.991 468.01C497.991 458.716 513.992 458.716 529.992 468.01C545.992 477.304 561.993 477.304 577.993 468.01C593.993 458.716 609.993 458.716 625.994 468.01C641.994 477.304 657.994 477.304 673.995 468.01C689.995 458.716 705.995 458.716 721.996 468.01C737.996 477.304 753.996 477.304 769.996 468.01C785.997 458.716 801.997 458.716 817.997 468.01C833.998 477.304 849.998 477.304 865.998 468.01C881.999 458.716 897.999 458.716 913.999 468.01C929.999 477.304 946 477.304 962 468.01" stroke="#35426B" stroke-width="2" stroke-linecap="round"/>
<path d="M1.98218 488.921C17.9825 479.627 33.9828 479.627 49.9831 488.921C65.9834 498.214 81.9837 498.214 97.984 488.921C113.984 479.627 129.985 479.627 145.985 488.921C161.985 498.214 177.985 498.214 193.986 488.921C209.986 479.627 225.986 479.627 241.987 488.921C257.987 498.214 273.987 498.214 289.988 488.921C305.988 479.627 321.988 479.627 337.988 488.921C353.989 498.214 369.989 498.214 385.989 488.921C401.99 479.627 417.99 479.627 433.99 488.921C449.99 498.214 465.991 498.214 481.991 488.921C497.991 479.627 513.992 479.627 529.992 488.921C545.992 498.214 561.993 498.214 577.993 488.921C593.993 479.627 609.993 479.627 625.994 488.921C641.994 498.214 657.994 498.214 673.995 488.921C689.995 479.627 705.995 479.627 721.996 488.921C737.996 498.214 753.996 498.214 769.996 488.921C785.997 479.627 801.997 479.627 817.997 488.921C833.998 498.214 849.998 498.214 865.998 488.921C881.999 479.627 897.999 479.627 913.999 488.921C929.999 498.214 946 498.214 962 488.921" stroke="#35426B" stroke-width="2" stroke-linecap="round"/>
<path d="M1.98218 509.832C17.9825 500.538 33.9828 500.538 49.9831 509.832C65.9834 519.125 81.9837 519.125 97.984 509.832C113.984 500.538 129.985 500.538 145.985 509.832C161.985 519.125 177.985 519.125 193.986 509.832C209.986 500.538 225.986 500.538 241.987 509.832C257.987 519.125 273.987 519.125 289.988 509.832C305.988 500.538 321.988 500.538 337.988 509.832C353.989 519.125 369.989 519.125 385.989 509.832C401.99 500.538 417.99 500.538 433.99 509.832C449.99 519.125 465.991 519.125 481.991 509.832C497.991 500.538 513.992 500.538 529.992 509.832C545.992 519.125 561.993 519.125 577.993 509.832C593.993 500.538 609.993 500.538 625.994 509.832C641.994 519.125 657.994 519.125 673.995 509.832C689.995 500.538 705.995 500.538 721.996 509.832C737.996 519.125 753.996 519.125 769.996 509.832C785.997 500.538 801.997 500.538 817.997 509.832C833.998 519.125 849.998 519.125 865.998 509.832C881.999 500.538 897.999 500.538 913.999 509.832C929.999 519.125 946 519.125 962 509.832" stroke="#35426B" stroke-width="2" stroke-linecap="round"/>
<path d="M1.98218 530.743C17.9825 521.449 33.9828 521.449 49.9831 530.743C65.9834 540.036 81.9837 540.036 97.984 530.743C113.984 521.449 129.985 521.449 145.985 530.743C161.985 540.036 177.985 540.036 193.986 530.743C209.986 521.449 225.986 521.449 241.987 530.743C257.987 540.036 273.987 540.036 289.988 530.743C305.988 521.449 321.988 521.449 337.988 530.743C353.989 540.036 369.989 540.036 385.989 530.743C401.99 521.449 417.99 521.449 433.99 530.743C449.99 540.036 465.991 540.036 481.991 530.743C497.991 521.449 513.992 521.449 529.992 530.743C545.992 540.036 561.993 540.036 577.993 530.743C593.993 521.449 609.993 521.449 625.994 530.743C641.994 540.036 657.994 540.036 673.995 530.743C689.995 521.449 705.995 521.449 721.996 530.743C737.996 540.036 753.996 540.036 769.996 530.743C785.997 521.449 801.997 521.449 817.997 530.743C833.998 540.036 849.998 540.036 865.998 530.743C881.999 521.449 897.999 521.449 913.999 530.743C929.999 540.036 946 540.036 962 530.743" stroke="#35426B" stroke-width="2" stroke-linecap="round"/>
<path d="M1.98218 551.653C17.9825 542.36 33.9828 542.36 49.9831 551.653C65.9834 560.947 81.9837 560.947 97.984 551.653C113.984 542.36 129.985 542.36 145.985 551.653C161.985 560.947 177.985 560.947 193.986 551.653C209.986 542.36 225.986 542.36 241.987 551.653C257.987 560.947 273.987 560.947 289.988 551.653C305.988 542.36 321.988 542.36 337.988 551.653C353.989 560.947 369.989 560.947 385.989 551.653C401.99 542.36 417.99 542.36 433.99 551.653C449.99 560.947 465.991 560.947 481.991 551.653C497.991 542.36 513.992 542.36 529.992 551.653C545.992 560.947 561.993 560.947 577.993 551.653C593.993 542.36 609.993 542.36 625.994 551.653C641.994 560.947 657.994 560.947 673.995 551.653C689.995 542.36 705.995 542.36 721.996 551.653C737.996 560.947 753.996 560.947 769.996 551.653C785.997 542.36 801.997 542.36 817.997 551.653C833.998 560.947 849.998 560.947 865.998 551.653C881.999 542.36 897.999 542.36 913.999 551.653C929.999 560.947 946 560.947 962 551.653" stroke="#35426B" stroke-width="2" stroke-linecap="round"/>
<path d="M1.98218 572.564C17.9825 563.271 33.9828 563.271 49.9831 572.564C65.9834 581.858 81.9837 581.858 97.984 572.564C113.984 563.271 129.985 563.271 145.985 572.564C161.985 581.858 177.985 581.858 193.986 572.564C209.986 563.271 225.986 563.271 241.987 572.564C257.987 581.858 273.987 581.858 289.988 572.564C305.988 563.271 321.988 563.271 337.988 572.564C353.989 581.858 369.989 581.858 385.989 572.564C401.99 563.271 417.99 563.271 433.99 572.564C449.99 581.858 465.991 581.858 481.991 572.564C497.991 563.271 513.992 563.271 529.992 572.564C545.992 581.858 561.993 581.858 577.993 572.564C593.993 563.271 609.993 563.271 625.994 572.564C641.994 581.858 657.994 581.858 673.995 572.564C689.995 563.271 705.995 563.271 721.996 572.564C737.996 581.858 753.996 581.858 769.996 572.564C785.997 563.271 801.997 563.271 817.997 572.564C833.998 581.858 849.998 581.858 865.998 572.564C881.999 563.271 897.999 563.271 913.999 572.564C929.999 581.858 946 581.858 962 572.564" stroke="#35426B" stroke-width="2" stroke-linecap="round"/>
<path d="M1.98218 593.475C17.9825 584.181 33.9828 584.181 49.9831 593.475C65.9834 602.769 81.9837 602.769 97.984 593.475C113.984 584.181 129.985 584.181 145.985 593.475C161.985 602.769 177.985 602.769 193.986 593.475C209.986 584.181 225.986 584.181 241.987 593.475C257.987 602.769 273.987 602.769 289.988 593.475C305.988 584.181 321.988 584.181 337.988 593.475C353.989 602.769 369.989 602.769 385.989 593.475C401.99 584.181 417.99 584.181 433.99 593.475C449.99 602.769 465.991 602.769 481.991 593.475C497.991 584.181 513.992 584.181 529.992 593.475C545.992 602.769 561.993 602.769 577.993 593.475C593.993 584.181 609.993 584.181 625.994 593.475C641.994 602.769 657.994 602.769 673.995 593.475C689.995 584.181 705.995 584.181 721.996 593.475C737.996 602.769 753.996 602.769 769.996 593.475C785.997 584.181 801.997 584.181 817.997 593.475C833.998 602.769 849.998 602.769 865.998 593.475C881.999 584.181 897.999 584.181 913.999 593.475C929.999 602.769 946 602.769 962 593.475" stroke="#35426B" stroke-width="2" stroke-linecap="round"/>
<path d="M1.98218 614.386C17.9825 605.092 33.9828 605.092 49.9831 614.386C65.9834 623.68 81.9837 623.68 97.984 614.386C113.984 605.092 129.985 605.092 145.985 614.386C161.985 623.68 177.985 623.68 193.986 614.386C209.986 605.092 225.986 605.092 241.987 614.386C257.987 623.68 273.987 623.68 289.988 614.386C305.988 605.092 321.988 605.092 337.988 614.386C353.989 623.68 369.989 623.68 385.989 614.386C401.99 605.092 417.99 605.092 433.99 614.386C449.99 623.68 465.991 623.68 481.991 614.386C497.991 605.092 513.992 605.092 529.992 614.386C545.992 623.68 561.993 623.68 577.993 614.386C593.993 605.092 609.993 605.092 625.994 614.386C641.994 623.68 657.994 623.68 673.995 614.386C689.995 605.092 705.995 605.092 721.996 614.386C737.996 623.68 753.996 623.68 769.996 614.386C785.997 605.092 801.997 605.092 817.997 614.386C833.998 623.68 849.998 623.68 865.998 614.386C881.999 605.092 897.999 605.092 913.999 614.386C929.999 623.68 946 623.68 962 614.386" stroke="#35426B" stroke-width="2" stroke-linecap="round"/>
<path d="M1.98218 635.297C17.9825 626.003 33.9828 626.003 49.9831 635.297C65.9834 644.591 81.9837 644.591 97.984 635.297C113.984 626.003 129.985 626.003 145.985 635.297C161.985 644.591 177.985 644.591 193.986 635.297C209.986 626.003 225.986 626.003 241.987 635.297C257.987 644.591 273.987 644.591 289.988 635.297C305.988 626.003 321.988 626.003 337.988 635.297C353.989 644.591 369.989 644.591 385.989 635.297C401.99 626.003 417.99 626.003 433.99 635.297C449.99 644.591 465.991 644.591 481.991 635.297C497.991 626.003 513.992 626.003 529.992 635.297C545.992 644.591 561.993 644.591 577.993 635.297C593.993 626.003 609.993 626.003 625.994 635.297C641.994 644.591 657.994 644.591 673.995 635.297C689.995 626.003 705.995 626.003 721.996 635.297C737.996 644.591 753.996 644.591 769.996 635.297C785.997 626.003 801.997 626.003 817.997 635.297C833.998 644.591 849.998 644.591 865.998 635.297C881.999 626.003 897.999 626.003 913.999 635.297C929.999 644.591 946 644.591 962 635.297" stroke="#35426B" stroke-width="2" stroke-linecap="round"/>
<path d="M1.98218 656.208C17.9825 646.914 33.9828 646.914 49.9831 656.208C65.9834 665.502 81.9837 665.502 97.984 656.208C113.984 646.914 129.985 646.914 145.985 656.208C161.985 665.502 177.985 665.502 193.986 656.208C209.986 646.914 225.986 646.914 241.987 656.208C257.987 665.502 273.987 665.502 289.988 656.208C305.988 646.914 321.988 646.914 337.988 656.208C353.989 665.502 369.989 665.502 385.989 656.208C401.99 646.914 417.99 646.914 433.99 656.208C449.99 665.502 465.991 665.502 481.991 656.208C497.991 646.914 513.992 646.914 529.992 656.208C545.992 665.502 561.993 665.502 577.993 656.208C593.993 646.914 609.993 646.914 625.994 656.208C641.994 665.502 657.994 665.502 673.995 656.208C689.995 646.914 705.995 646.914 721.996 656.208C737.996 665.502 753.996 665.502 769.996 656.208C785.997 646.914 801.997 646.914 817.997 656.208C833.998 665.502 849.998 665.502 865.998 656.208C881.999 646.914 897.999 646.914 913.999 656.208C929.999 665.502 946 665.502 962 656.208" stroke="#35426B" stroke-width="2" stroke-linecap="round"/>
<path d="M1.98218 677.119C17.9825 667.825 33.9828 667.825 49.9831 677.119C65.9834 686.412 81.9837 686.412 97.984 677.119C113.984 667.825 129.985 667.825 145.985 677.119C161.985 686.412 177.985 686.412 193.986 677.119C209.986 667.825 225.986 667.825 241.987 677.119C257.987 686.412 273.987 686.412 289.988 677.119C305.988 667.825 321.988 667.825 337.988 677.119C353.989 686.412 369.989 686.412 385.989 677.119C401.99 667.825 417.99 667.825 433.99 677.119C449.99 686.412 465.991 686.412 481.991 677.119C497.991 667.825 513.992 667.825 529.992 677.119C545.992 686.412 561.993 686.412 577.993 677.119C593.993 667.825 609.993 667.825 625.994 677.119C641.994 686.412 657.994 686.412 673.995 677.119C689.995 667.825 705.995 667.825 721.996 677.119C737.996 686.412 753.996 686.412 769.996 677.119C785.997 667.825 801.997 667.825 817.997 677.119C833.998 686.412 849.998 686.412 865.998 677.119C881.999 667.825 897.999 667.825 913.999 677.119C929.999 686.412 946 686.412 962 677.119" stroke="#35426B" stroke-width="2" stroke-linecap="round"/>
<path d="M1.98218 698.03C17.9825 688.736 33.9828 688.736 49.9831 698.03C65.9834 707.323 81.9837 707.323 97.984 698.03C113.984 688.736 129.985 688.736 145.985 698.03C161.985 707.323 177.985 707.323 193.986 698.03C209.986 688.736 225.986 688.736 241.987 698.03C257.987 707.323 273.987 707.323 289.988 698.03C305.988 688.736 321.988 688.736 337.988 698.03C353.989 707.323 369.989 707.323 385.989 698.03C401.99 688.736 417.99 688.736 433.99 698.03C449.99 707.323 465.991 707.323 481.991 698.03C497.991 688.736 513.992 688.736 529.992 698.03C545.992 707.323 561.993 707.323 577.993 698.03C593.993 688.736 609.993 688.736 625.994 698.03C641.994 707.323 657.994 707.323 673.995 698.03C689.995 688.736 705.995 688.736 721.996 698.03C737.996 707.323 753.996 707.323 769.996 698.03C785.997 688.736 801.997 688.736 817.997 698.03C833.998 707.323 849.998 707.323 865.998 698.03C881.999 688.736 897.999 688.736 913.999 698.03C929.999 707.323 946 707.323 962 698.03" stroke="#35426B" stroke-width="2" stroke-linecap="round"/>
</svg>
